<mxfile host="Electron" modified="2024-05-06T15:41:05.652Z" agent="Mozilla/5.0 (Macintosh; Intel Mac OS X 10_15_7) AppleWebKit/537.36 (KHTML, like Gecko) draw.io/24.2.5 Chrome/120.0.6099.109 Electron/28.1.0 Safari/537.36" etag="ZiBINATyIKZumpNXyJyC" version="24.2.5" type="device">
  <diagram name="hierarchy" id="Zz_1bOUxznpfkzFIxQk0">
    <mxGraphModel dx="1242" dy="823" grid="1" gridSize="10" guides="1" tooltips="1" connect="1" arrows="1" fold="1" page="1" pageScale="1" pageWidth="1100" pageHeight="850" math="0" shadow="0">
      <root>
        <mxCell id="t3uQqn5LUAdtQlTmnY0W-0" />
        <mxCell id="t3uQqn5LUAdtQlTmnY0W-1" parent="t3uQqn5LUAdtQlTmnY0W-0" />
        <mxCell id="t3uQqn5LUAdtQlTmnY0W-2" style="edgeStyle=orthogonalEdgeStyle;rounded=0;orthogonalLoop=1;jettySize=auto;html=1;endArrow=ERmany;endFill=0;" parent="t3uQqn5LUAdtQlTmnY0W-1" source="t3uQqn5LUAdtQlTmnY0W-3" target="t3uQqn5LUAdtQlTmnY0W-5" edge="1">
          <mxGeometry relative="1" as="geometry" />
        </mxCell>
        <mxCell id="t3uQqn5LUAdtQlTmnY0W-3" value="Group" style="rounded=1;whiteSpace=wrap;html=1;glass=0;" parent="t3uQqn5LUAdtQlTmnY0W-1" vertex="1">
          <mxGeometry x="200" y="40" width="120" height="60" as="geometry" />
        </mxCell>
        <mxCell id="t3uQqn5LUAdtQlTmnY0W-4" style="edgeStyle=orthogonalEdgeStyle;rounded=0;orthogonalLoop=1;jettySize=auto;html=1;endArrow=ERmany;endFill=0;" parent="t3uQqn5LUAdtQlTmnY0W-1" source="t3uQqn5LUAdtQlTmnY0W-5" target="t3uQqn5LUAdtQlTmnY0W-7" edge="1">
          <mxGeometry relative="1" as="geometry" />
        </mxCell>
        <mxCell id="t3uQqn5LUAdtQlTmnY0W-5" value="Region" style="rounded=1;whiteSpace=wrap;html=1;glass=0;" parent="t3uQqn5LUAdtQlTmnY0W-1" vertex="1">
          <mxGeometry x="360" y="40" width="120" height="60" as="geometry" />
        </mxCell>
        <mxCell id="t3uQqn5LUAdtQlTmnY0W-6" style="edgeStyle=orthogonalEdgeStyle;rounded=0;orthogonalLoop=1;jettySize=auto;html=1;endArrow=ERmany;endFill=0;" parent="t3uQqn5LUAdtQlTmnY0W-1" source="t3uQqn5LUAdtQlTmnY0W-7" target="t3uQqn5LUAdtQlTmnY0W-8" edge="1">
          <mxGeometry relative="1" as="geometry" />
        </mxCell>
        <mxCell id="t3uQqn5LUAdtQlTmnY0W-7" value="Polygon" style="rounded=1;whiteSpace=wrap;html=1;glass=0;" parent="t3uQqn5LUAdtQlTmnY0W-1" vertex="1">
          <mxGeometry x="520" y="40" width="120" height="60" as="geometry" />
        </mxCell>
        <mxCell id="t3uQqn5LUAdtQlTmnY0W-8" value="State" style="rounded=1;whiteSpace=wrap;html=1;glass=0;" parent="t3uQqn5LUAdtQlTmnY0W-1" vertex="1">
          <mxGeometry x="680" y="40" width="120" height="60" as="geometry" />
        </mxCell>
        <mxCell id="eo37xDGP-3Co8W5QvDYz-0" style="edgeStyle=orthogonalEdgeStyle;rounded=0;orthogonalLoop=1;jettySize=auto;html=1;endArrow=ERmany;endFill=0;" parent="t3uQqn5LUAdtQlTmnY0W-1" source="eo37xDGP-3Co8W5QvDYz-1" target="eo37xDGP-3Co8W5QvDYz-3" edge="1">
          <mxGeometry relative="1" as="geometry" />
        </mxCell>
        <mxCell id="eo37xDGP-3Co8W5QvDYz-7" value="represented as" style="edgeStyle=orthogonalEdgeStyle;rounded=0;orthogonalLoop=1;jettySize=auto;html=1;dashed=1;" parent="t3uQqn5LUAdtQlTmnY0W-1" source="eo37xDGP-3Co8W5QvDYz-1" target="t3uQqn5LUAdtQlTmnY0W-3" edge="1">
          <mxGeometry relative="1" as="geometry" />
        </mxCell>
        <mxCell id="eo37xDGP-3Co8W5QvDYz-1" value="Grower" style="rounded=1;whiteSpace=wrap;html=1;glass=0;" parent="t3uQqn5LUAdtQlTmnY0W-1" vertex="1">
          <mxGeometry x="200" y="200" width="120" height="60" as="geometry" />
        </mxCell>
        <mxCell id="eo37xDGP-3Co8W5QvDYz-2" style="edgeStyle=orthogonalEdgeStyle;rounded=0;orthogonalLoop=1;jettySize=auto;html=1;endArrow=ERmany;endFill=0;" parent="t3uQqn5LUAdtQlTmnY0W-1" source="eo37xDGP-3Co8W5QvDYz-3" target="eo37xDGP-3Co8W5QvDYz-5" edge="1">
          <mxGeometry relative="1" as="geometry" />
        </mxCell>
        <mxCell id="eo37xDGP-3Co8W5QvDYz-10" value="represented as" style="edgeStyle=orthogonalEdgeStyle;rounded=0;orthogonalLoop=1;jettySize=auto;html=1;dashed=1;" parent="t3uQqn5LUAdtQlTmnY0W-1" source="eo37xDGP-3Co8W5QvDYz-3" target="t3uQqn5LUAdtQlTmnY0W-5" edge="1">
          <mxGeometry relative="1" as="geometry" />
        </mxCell>
        <mxCell id="eo37xDGP-3Co8W5QvDYz-3" value="Farm" style="rounded=1;whiteSpace=wrap;html=1;glass=0;" parent="t3uQqn5LUAdtQlTmnY0W-1" vertex="1">
          <mxGeometry x="360" y="200" width="120" height="60" as="geometry" />
        </mxCell>
        <mxCell id="eo37xDGP-3Co8W5QvDYz-4" style="edgeStyle=orthogonalEdgeStyle;rounded=0;orthogonalLoop=1;jettySize=auto;html=1;endArrow=ERmany;endFill=0;" parent="t3uQqn5LUAdtQlTmnY0W-1" source="eo37xDGP-3Co8W5QvDYz-5" target="eo37xDGP-3Co8W5QvDYz-6" edge="1">
          <mxGeometry relative="1" as="geometry" />
        </mxCell>
        <mxCell id="eo37xDGP-3Co8W5QvDYz-11" style="edgeStyle=orthogonalEdgeStyle;rounded=0;orthogonalLoop=1;jettySize=auto;html=1;dashed=1;" parent="t3uQqn5LUAdtQlTmnY0W-1" source="eo37xDGP-3Co8W5QvDYz-5" target="t3uQqn5LUAdtQlTmnY0W-7" edge="1">
          <mxGeometry relative="1" as="geometry" />
        </mxCell>
        <mxCell id="eo37xDGP-3Co8W5QvDYz-13" value="represented as" style="edgeLabel;html=1;align=center;verticalAlign=middle;resizable=0;points=[];" parent="eo37xDGP-3Co8W5QvDYz-11" vertex="1" connectable="0">
          <mxGeometry x="-0.24" y="2" relative="1" as="geometry">
            <mxPoint x="2" y="-12" as="offset" />
          </mxGeometry>
        </mxCell>
        <mxCell id="eo37xDGP-3Co8W5QvDYz-5" value="Field" style="rounded=1;whiteSpace=wrap;html=1;glass=0;" parent="t3uQqn5LUAdtQlTmnY0W-1" vertex="1">
          <mxGeometry x="520" y="200" width="120" height="60" as="geometry" />
        </mxCell>
        <mxCell id="eo37xDGP-3Co8W5QvDYz-12" style="edgeStyle=orthogonalEdgeStyle;rounded=0;orthogonalLoop=1;jettySize=auto;html=1;dashed=1;" parent="t3uQqn5LUAdtQlTmnY0W-1" source="eo37xDGP-3Co8W5QvDYz-6" target="t3uQqn5LUAdtQlTmnY0W-8" edge="1">
          <mxGeometry relative="1" as="geometry" />
        </mxCell>
        <mxCell id="eo37xDGP-3Co8W5QvDYz-14" value="represented as" style="edgeLabel;html=1;align=center;verticalAlign=middle;resizable=0;points=[];" parent="eo37xDGP-3Co8W5QvDYz-12" vertex="1" connectable="0">
          <mxGeometry x="-0.08" y="-1" relative="1" as="geometry">
            <mxPoint x="-1" y="-4" as="offset" />
          </mxGeometry>
        </mxCell>
        <mxCell id="eo37xDGP-3Co8W5QvDYz-6" value="Crop Season" style="rounded=1;whiteSpace=wrap;html=1;glass=0;" parent="t3uQqn5LUAdtQlTmnY0W-1" vertex="1">
          <mxGeometry x="680" y="200" width="120" height="60" as="geometry" />
        </mxCell>
        <mxCell id="QN0HziPc1heGtVfejWSD-0" value="" style="strokeWidth=2;html=1;shape=mxgraph.flowchart.annotation_2;align=left;labelPosition=right;pointerEvents=1;" vertex="1" parent="t3uQqn5LUAdtQlTmnY0W-1">
          <mxGeometry x="120" y="20" width="50" height="100" as="geometry" />
        </mxCell>
        <mxCell id="QN0HziPc1heGtVfejWSD-1" value="ARCADE&lt;div&gt;nomenclature&lt;/div&gt;" style="text;html=1;align=center;verticalAlign=middle;resizable=0;points=[];autosize=1;strokeColor=none;fillColor=none;" vertex="1" parent="t3uQqn5LUAdtQlTmnY0W-1">
          <mxGeometry x="20" y="53" width="100" height="40" as="geometry" />
        </mxCell>
        <mxCell id="QN0HziPc1heGtVfejWSD-2" value="" style="strokeWidth=2;html=1;shape=mxgraph.flowchart.annotation_2;align=left;labelPosition=right;pointerEvents=1;" vertex="1" parent="t3uQqn5LUAdtQlTmnY0W-1">
          <mxGeometry x="120" y="180" width="50" height="100" as="geometry" />
        </mxCell>
        <mxCell id="QN0HziPc1heGtVfejWSD-3" value="&lt;div&gt;AgTech&lt;/div&gt;&lt;div&gt;nomenclature&lt;/div&gt;" style="text;html=1;align=center;verticalAlign=middle;resizable=0;points=[];autosize=1;strokeColor=none;fillColor=none;" vertex="1" parent="t3uQqn5LUAdtQlTmnY0W-1">
          <mxGeometry x="20" y="210" width="100" height="40" as="geometry" />
        </mxCell>
      </root>
    </mxGraphModel>
  </diagram>
</mxfile>
